# xmcd CD database file
#
# Track frame offsets:
#	150
#	21237
#	36040
#	54465
#	64760
#	77202
#	88797
#	101840
#	115627
#	127695
#	149380
#	192160
#	202060
#	213580
#	225245
#	242695
#	267747
#
# Disc length: 4279 seconds
#
# Revision: 0
# Processed by: cddbd v1.5PL3 Copyright (c) Steve Scherf et al.
# Submitted via: CDex 1.50beta8
#
DISCID=f010b511
DTITLE=MOONRIDERS - Damn! moonriders (スタジオ編)
DYEAR=1900
DGENRE=Rock
TTITLE0=スタジオ・ミュージシャン(DEMO)
TTITLE1=象のような女(DEMO)
TTITLE2=おやすみ(DEMO)
TTITLE3=くれない埠頭(1st DEMO)
TTITLE4=くれない埠頭(3rd DEMO)
TTITLE5=青空のマリー(DEMO)
TTITLE6=僕はスーパーフライ(DEMO)
TTITLE7=霧の10m2(DEMO)
TTITLE8=先生パー(DEMO)
TTITLE9=Kujira Session #9(DEMO)
TTITLE10=霧笛
TTITLE11=夜笛(DEMO)
TTITLE12=30(DEMO)
TTITLE13=僕の努力
TTITLE14=I am a Robot Santa Claus
TTITLE15=Tears of Rage(LIVE)
TTITLE16=Homburg(LIVE)
EXTD=
EXTT0=
EXTT1=
EXTT2=
EXTT3=
EXTT4=
EXTT5=
EXTT6=
EXTT7=
EXTT8=
EXTT9=
EXTT10=
EXTT11=
EXTT12=
EXTT13=
EXTT14=
EXTT15=
EXTT16=
PLAYORDER=
